<svg xmlns="http://www.w3.org/2000/svg" xmlns:xlink="http://www.w3.org/1999/xlink" version="1.1" width="100" height="21" viewBox="0 0 1000 210" xml:space="preserve">
<rect x="0" y="0" width="100%" height="100%" fill="transparent"/>
<g transform="matrix(2.4749 0 0 2.4749 138.902 105)" id="195121">
<g style="" vector-effect="non-scaling-stroke">
		<g transform="matrix(1 0 0 1 20.2248 -20.9757)">
<path style="stroke: none; stroke-width: 1; stroke-dasharray: none; stroke-linecap: butt; stroke-dashoffset: 0; stroke-linejoin: miter; stroke-miterlimit: 4; is-custom-font: none; font-file-url: none; fill: none; fill-rule: nonzero; opacity: 1;" transform=" translate(-70.2245, -29.0256)" d="M 84.417 32.167 l -0.001 -0.001 l -0.005 0.01 z m 1.545 1.572 c -0.036 -0.076 -0.065 -0.154 -0.109 -0.227 c 0.044 0.074 0.073 0.152 0.109 0.227 z m -0.368 -0.582 c -0.011 -0.013 -0.019 -0.028 -0.03 -0.042 c 0.011 0.014 0.019 0.029 0.03 0.042 z M 68.048 39.16 a 41.238 41.238 0 0 1 2.626 3.481 c 0.678 0.998 1.37 2.367 2.633 2.708 c 0.504 0.136 0.989 -0.03 1.153 -0.558 c 0.177 -0.563 -0.014 -1.153 -0.211 -1.685 c -0.438 -1.177 -1.063 -2.287 -1.772 -3.324 c -1.448 -2.115 -3.326 -3.992 -5.328 -5.587 c -1.953 -1.558 -4.111 -2.979 -6.457 -3.872 c -1.68 -0.637 -3.648 -1.051 -5.375 -0.353 l -0.046 0.019 l 0.045 -0.019 l -0.011 0.003 c -0.009 0.004 -0.019 0.009 -0.031 0.012 a 9.39 9.39 0 0 0 -0.787 0.389 c 2.508 0.671 4.915 1.635 7.119 3.016 c 2.469 1.548 4.569 3.553 6.442 5.77 z m 3.092 -4.469 c 1.446 1.436 2.763 2.975 3.826 4.72 c 1.719 -1.75 3.326 -3.605 4.763 -5.596 c 0.752 -1.045 1.501 -2.084 2.18 -3.18 c 0.47 -0.76 0.875 -1.549 1.305 -2.332 l 0.002 -0.005 l 0.002 -0.003 l -0.003 0.006 V 28.3 l 0.002 -0.004 c 0.373 -0.797 0.679 -1.628 0.753 -2.511 a 4.68 4.68 0 0 0 -0.644 -2.777 c -0.877 -1.47 -2.286 -2.605 -3.682 -3.565 a 45.5 45.5 0 0 0 -4.747 -2.759 c -2.25 -1.14 -4.534 -2.262 -6.887 -3.173 c -0.697 -0.271 -1.393 -0.563 -2.122 -0.734 c -0.423 -0.1 -0.89 -0.171 -1.322 -0.074 l -0.015 0.003 l -0.002 -0.001 c -0.009 0.003 -0.015 0.006 -0.02 0.006 c -0.88 0.225 -1.405 1.107 -1.825 1.846 a 28.098 28.098 0 0 0 -1.018 1.946 a 39.8 39.8 0 0 0 -1.36 3.194 a 46.822 46.822 0 0 0 -1.328 4.221 a 32.098 32.098 0 0 0 -0.413 1.727 c -0.12 0.571 -0.203 1.154 -0.333 1.723 c 2.678 0.276 5.206 1.531 7.443 2.967 a 33.153 33.153 0 0 1 5.445 4.356 z" stroke-linecap="round"/>
</g>
		<g transform="matrix(1 0 0 1 20.6303 -12.5952)">
<path style="stroke: none; stroke-width: 1; stroke-dasharray: none; stroke-linecap: butt; stroke-dashoffset: 0; stroke-linejoin: miter; stroke-miterlimit: 4; is-custom-font: none; font-file-url: none; fill: none; fill-rule: nonzero; opacity: 1;" transform=" translate(-70.63, -37.406)" d="M 63.549 42.846 c 0.944 1.13 1.814 2.332 2.499 3.64 a 54.045 54.045 0 0 0 3.004 -2.137 c -1.602 -2.413 -3.436 -4.729 -5.588 -6.679 c -2.138 -1.936 -4.609 -3.341 -7.282 -4.402 c -0.922 -0.364 -1.864 -0.702 -2.831 -0.927 c -0.498 -0.115 -1.073 -0.276 -1.54 0.006 c -0.52 0.311 -1.012 0.671 -1.51 1.017 c 2.646 0.819 5.045 2.192 7.264 3.832 a 34.59 34.59 0 0 1 5.984 5.65 z M 50.313 28.371 l 0.018 -0.024 l 0.021 -0.016 l 0.005 -0.005 c -0.009 0.009 -0.019 0.014 -0.027 0.021 l -0.02 0.026 l 0.003 -0.002 z m 33.21 5.084 c -0.219 0.311 -0.422 0.633 -0.652 0.938 c 0.23 -0.305 0.433 -0.627 0.652 -0.938 z m -2.336 3.038 c 0.862 -0.056 1.724 -0.102 2.58 -0.217 c 0.756 -0.101 1.674 -0.271 2.16 -0.921 a 1.638 1.638 0 0 0 -0.001 0 c -0.486 0.65 -1.404 0.82 -2.159 0.921 c -0.856 0.115 -1.718 0.161 -2.579 0.216 a 52.516 52.516 0 0 0 -0.001 0.001 z m 9.77 0.351 c 0.001 0.003 0 0.005 -0.001 0.007 v 0.005 l 0.002 -0.022 c 0.002 0.004 0.001 0.006 -0.001 0.01 z" stroke-linecap="round"/>
</g>
		<g transform="matrix(1 0 0 1 34.873 -13.9629)">
<path style="stroke: none; stroke-width: 1; stroke-dasharray: none; stroke-linecap: butt; stroke-dashoffset: 0; stroke-linejoin: miter; stroke-miterlimit: 4; is-custom-font: none; font-file-url: none; fill: none; fill-rule: nonzero; opacity: 1;" transform=" translate(-84.8727, -36.0383)" d="M 85.767 29.817 c -0.197 0.383 -0.408 0.762 -0.615 1.137 c 0.991 0.531 1.913 1.306 2.328 2.379 a 3.28 3.28 0 0 1 -0.199 2.803 c -0.919 1.439 -2.747 1.648 -4.302 1.768 c -0.842 0.063 -1.713 0.034 -2.541 0.209 c -0.637 0.134 -1.183 0.361 -1.533 0.926 l -0.001 0.002 c -0.108 0.335 -0.172 0.613 -0.093 0.969 c 0.115 0.505 0.501 0.936 0.896 1.252 c 0.619 0.5 1.332 0.747 2.094 0.919 c -0.084 -0.032 -0.031 -0.014 -0.031 -0.016 a 13.6 13.6 0 0 0 2.086 0.086 a 12.285 12.285 0 0 0 2.057 -0.277 c 0.49 -0.105 1.023 -0.223 1.485 -0.429 c 0.689 -0.3 1.365 -0.639 1.914 -1.169 c 0.318 -0.305 0.578 -0.67 0.809 -1.045 c 0.118 -0.189 0.22 -0.388 0.315 -0.589 c 0.37 -0.852 0.58 -1.727 0.525 -2.659 c -0.069 -1.22 -0.711 -2.411 -1.51 -3.317 a 13.725 13.725 0 0 0 -3.684 -2.949 z" stroke-linecap="round"/>
</g>
		<g transform="matrix(1 0 0 1 -0.1256 9.5523)">
<path style="stroke: none; stroke-width: 1; stroke-dasharray: none; stroke-linecap: butt; stroke-dashoffset: 0; stroke-linejoin: miter; stroke-miterlimit: 4; is-custom-font: none; font-file-url: none; fill: none; fill-rule: nonzero; opacity: 1;" transform=" translate(-49.874, -59.5535)" d="M 90.955 36.859 l 0.001 -0.002 l -0.002 -0.001 z m -45.252 -5.301 l -0.003 0.002 a 0.258 0.258 0 0 0 -0.025 0.019 c 0.005 -0.005 0.011 -0.008 0.019 -0.014 l 0.009 -0.007 z m 0 -0.001 l 0.007 -0.005 l -0.009 0.007 l 0.002 -0.002 z m 2.691 5.78 c 1.177 0.587 2.3 1.28 3.359 2.057 a 23.243 23.243 0 0 1 5.446 5.577 a 38.756 38.756 0 0 1 2.251 3.715 c 0.552 1.032 1.085 2.418 2.272 2.868 c 1.029 0.39 2.565 -0.049 3.03 -1.113 c 0.248 -0.569 0.001 -1.174 -0.205 -1.715 a 11.568 11.568 0 0 0 -0.802 -1.663 c -1.243 -2.156 -2.997 -4.074 -4.814 -5.757 c -2.072 -1.922 -4.424 -3.674 -7.001 -4.86 c -1.339 -0.614 -2.756 -1.112 -4.217 -1.336 c -0.615 -0.095 -1.259 -0.125 -1.863 0.052 c -0.518 0.15 -0.969 0.452 -1.383 0.79 c 0.688 0.168 1.37 0.306 2.036 0.555 c 0.644 0.245 1.276 0.521 1.891 0.83 z M 46.2 35.234 l 0.003 0.001 l -0.003 -0.001 z m 29.413 33.727 c -2.462 1.531 -4.994 2.982 -7.592 4.271 c -1.317 0.633 -2.631 1.274 -3.97 1.864 a 78.014 78.014 0 0 1 -4.124 1.662 c -2.637 0.989 -5.386 1.775 -8.16 2.267 c -3.653 0.649 -7.452 0.859 -11.111 0.132 c -3.758 -0.749 -7.322 -2.099 -10.722 -3.841 c -3.987 -2.044 -7.67 -4.811 -10.787 -8.031 c -1.007 -1.04 -2.009 -2.112 -2.889 -3.266 c -0.88 -1.154 -1.768 -2.334 -2.438 -3.625 a 31.807 31.807 0 0 1 -1.042 -2.202 c -0.844 0.578 -1.519 1.439 -2.103 2.268 c -0.127 0.182 -0.24 0.376 -0.349 0.569 c -0.25 0.45 -0.544 0.869 -0.782 1.324 a 6.696 6.696 0 0 0 -0.75 3.244 c 0.003 0.133 0.023 0.268 0.037 0.4 c 0.369 2.341 1.393 4.464 2.71 6.417 c 1.366 2.025 3.016 3.969 4.909 5.523 c 2.16 1.777 4.405 3.454 6.838 4.842 a 32.207 32.207 0 0 0 6.481 2.792 c 3.254 1.001 6.673 1.581 10.067 1.844 c 1.759 0.135 3.552 0.198 5.315 0.071 a 40.027 40.027 0 0 0 5.555 -0.799 c 4.261 -0.92 8.451 -2.235 12.511 -3.817 c 4.52 -1.759 9.125 -3.814 12.853 -6.984 c 0.869 -0.739 1.718 -1.536 2.383 -2.47 c 0.463 -0.649 0.847 -1.345 1.212 -2.053 c 0.61 -1.172 1.15 -2.396 1.475 -3.681 c 0.222 -0.898 0.445 -1.977 0.152 -2.883 c -1.703 1.65 -3.673 2.917 -5.679 4.162 z" stroke-linecap="round"/>
</g>
		<g transform="matrix(1 0 0 1 1.1264 7.2571)">
<path style="stroke: none; stroke-width: 1; stroke-dasharray: none; stroke-linecap: butt; stroke-dashoffset: 0; stroke-linejoin: miter; stroke-miterlimit: 4; is-custom-font: none; font-file-url: none; fill: none; fill-rule: nonzero; opacity: 1;" transform=" translate(-51.1261, -57.2583)" d="M 81.208 44.132 c -0.659 -0.17 -1.29 -0.489 -1.851 -0.872 c -0.957 -0.652 -1.859 -1.606 -2.12 -2.769 c -0.382 0.335 -0.78 0.66 -1.185 0.962 c 0.435 0.972 0.827 2 0.767 3.081 c -0.05 0.93 -0.431 1.845 -1.155 2.452 c -1.632 1.371 -3.879 0.557 -5.219 -0.806 a 56.869 56.869 0 0 1 -3.501 2.463 c 0.377 1.225 0.232 2.49 -0.565 3.523 c -0.702 0.912 -1.773 1.512 -2.893 1.734 c -1.181 0.233 -2.424 0.032 -3.436 -0.63 c -0.959 -0.625 -1.61 -1.588 -2.141 -2.58 c -1.274 -2.374 -2.593 -4.743 -4.442 -6.729 a 21.417 21.417 0 0 0 -6.29 -4.664 c -0.681 -0.329 -1.392 -0.658 -2.125 -0.852 c -0.788 -0.208 -1.598 -0.313 -2.336 -0.679 l -0.016 0.006 c -0.535 0.254 -1.129 0.465 -1.688 0.69 l -2.111 0.845 c 2.21 0.908 4.164 2.239 6.078 3.644 a 23.15 23.15 0 0 1 2.059 1.704 c 0.869 0.814 1.769 1.626 2.527 2.547 a 49.65 49.65 0 0 1 1.683 2.175 c 0.819 1.109 1.491 2.368 2.065 3.619 c 0.568 1.236 1.005 2.513 1.372 3.822 c 0.108 0.494 0.234 0.987 0.326 1.484 c 0.086 0.459 0.132 0.929 0.199 1.39 c 0.311 2.216 0.182 4.502 -0.137 6.707 c -0.28 1.951 -0.841 3.818 -1.48 5.675 c -0.311 0.906 -1.715 0.424 -1.405 -0.483 c 0.352 -1.031 0.698 -2.058 0.966 -3.114 c 0.347 -1.371 0.562 -2.776 0.669 -4.185 c 0.183 -2.438 0.036 -4.986 -0.675 -7.339 c -0.395 -1.309 -0.858 -2.575 -1.471 -3.798 c -0.638 -1.277 -1.412 -2.454 -2.252 -3.608 c -1.066 -1.462 -2.435 -2.7 -3.774 -3.909 c -0.866 -0.78 -1.852 -1.442 -2.799 -2.115 a 24.878 24.878 0 0 0 -2.163 -1.36 c -1.474 -0.831 -3.009 -1.468 -4.649 -1.855 c -1.804 -0.428 -3.737 -0.427 -5.545 -0.043 c -2.614 0.557 -4.974 1.799 -7.073 3.436 a 26.905 26.905 0 0 0 -4.895 5.093 c -1.092 1.477 -2.009 3.035 -2.828 4.678 a 8.862 8.862 0 0 0 -0.656 1.774 c -0.154 0.662 0.127 1.327 0.386 1.933 c 0.285 0.667 0.599 1.313 0.932 1.956 c 0.362 0.702 0.842 1.356 1.283 2.006 c 0.834 1.229 1.838 2.381 2.862 3.456 c 0.718 0.756 1.433 1.498 2.214 2.207 a 41.23 41.23 0 0 0 10.765 7.071 a 36.807 36.807 0 0 0 5.262 1.916 c 1.451 0.405 2.923 0.701 4.423 0.846 c 1.335 0.131 2.654 0.134 3.992 0.083 c 1.76 -0.071 3.522 -0.345 5.245 -0.699 a 48.531 48.531 0 0 0 8.266 -2.507 c 2.177 -0.874 4.336 -1.809 6.43 -2.868 a 109.398 109.398 0 0 0 7.628 -4.28 c 0.702 -0.43 1.408 -0.856 2.085 -1.326 c 1.081 -0.746 2.193 -1.549 3.068 -2.537 c 0.074 -0.08 0.149 -0.158 0.225 -0.237 c 0.226 -0.234 0.333 -0.533 0.472 -0.826 c 0.296 -0.625 0.592 -1.251 0.878 -1.881 c 0.233 -0.513 0.467 -1.028 0.694 -1.545 c -4.383 3.455 -9.375 6.468 -14.801 7.931 c -0.667 0.179 -1.337 0.334 -2.011 0.482 c -0.637 0.139 -0.879 -0.836 -0.249 -1.009 a 33.597 33.597 0 0 0 6.756 -2.636 c 2.563 -1.34 4.969 -2.973 7.226 -4.781 a 53.458 53.458 0 0 0 4.643 -4.18 c 0.319 -0.877 0.636 -1.758 0.953 -2.636 c -2.012 1.701 -4.142 3.289 -6.428 4.608 c -2.157 1.246 -4.428 2.216 -6.892 2.64 c -0.628 0.108 -0.829 -0.851 -0.207 -1.003 c 2.558 -0.622 4.856 -1.867 6.994 -3.383 c 2.228 -1.582 4.285 -3.406 6.196 -5.354 c 0.403 -0.409 0.799 -0.825 1.187 -1.246 c 0.282 -0.307 0.538 -0.648 0.84 -0.933 l 0.893 -2.469 c -1.965 0.591 -4.065 0.599 -6.045 0.087 z" stroke-linecap="round"/>
</g>
		<g transform="matrix(1 0 0 1 0 0)">
<path style="stroke: none; stroke-width: 1; stroke-dasharray: none; stroke-linecap: butt; stroke-dashoffset: 0; stroke-linejoin: miter; stroke-miterlimit: 4; is-custom-font: none; font-file-url: none; fill: rgb(0,0,0); fill-rule: nonzero; opacity: 1;" transform=" translate(-49.9997, -50.0012)" d="M 94.807 34.586 c -0.794 -3.57 -3.716 -6.37 -6.779 -8.134 c 0.005 -0.023 0.007 -0.045 0.01 -0.066 c 0.206 -1.686 -0.163 -3.41 -0.929 -4.918 c -0.962 -1.891 -2.541 -3.385 -4.197 -4.673 c -3.054 -2.373 -6.634 -4.027 -10.115 -5.657 a 79.298 79.298 0 0 0 -2.77 -1.227 c -1.184 -0.499 -2.418 -0.994 -3.689 -1.222 c -1.596 -0.289 -3.221 -0.077 -4.589 0.825 c -1.538 1.012 -2.507 2.678 -3.313 4.294 a 48.031 48.031 0 0 0 -1.579 3.473 c -1.076 2.669 -1.872 5.421 -2.466 8.233 c -0.988 0.174 -1.919 0.654 -2.697 1.28 c -0.552 0.445 -0.949 0.99 -1.364 1.554 c 0.008 -0.007 0.018 -0.012 0.027 -0.021 l -0.005 0.005 l -0.021 0.016 l -0.018 0.024 l -0.002 0.002 l 0.02 -0.026 c -0.63 0.488 -1.362 0.928 -2.031 1.396 c -0.666 0.467 -1.333 0.93 -1.998 1.395 c -1.112 -0.009 -2.26 0.128 -3.286 0.584 c -1.175 0.523 -2.26 1.497 -2.816 2.671 l -4.29 1.758 a 16.036 16.036 0 0 0 -1.259 -0.16 c -2.762 -0.251 -5.537 0.225 -8.094 1.283 c -2.613 1.081 -4.968 2.716 -7.035 4.63 c -2.153 1.993 -4.022 4.301 -5.585 6.781 c -0.771 1.223 -1.473 2.503 -2.026 3.842 c -0.271 0.659 -0.508 1.337 -0.655 2.034 c -0.096 0.08 -0.193 0.16 -0.291 0.237 c -0.274 0.222 -0.582 0.399 -0.843 0.632 c -0.195 0.172 -0.389 0.344 -0.576 0.525 c -0.367 0.357 -0.716 0.724 -1.047 1.112 c -0.643 0.752 -1.175 1.571 -1.653 2.432 c -1.282 1.921 -1.969 4.15 -1.829 6.463 c 0.124 2.102 0.899 4.184 1.854 6.039 c 1.277 2.479 2.989 4.73 4.9 6.753 c 1.579 1.672 3.371 3.108 5.22 4.471 c 2.395 1.764 4.934 3.336 7.656 4.547 c 3.776 1.679 7.89 2.634 11.972 3.183 c 2.951 0.399 5.966 0.608 8.944 0.391 c 3.1 -0.225 6.137 -0.833 9.138 -1.618 c 5.648 -1.476 11.239 -3.443 16.463 -6.062 c 2.329 -1.168 4.546 -2.518 6.621 -4.095 c 1.536 -1.169 2.969 -2.536 4.069 -4.126 c 0.453 -0.656 0.841 -1.351 1.216 -2.054 c 0.689 -1.303 1.305 -2.657 1.729 -4.071 c 0.656 -2.19 1.037 -4.891 -0.277 -6.918 c 0.012 -0.027 0.024 -0.053 0.038 -0.079 c 0.669 -1.42 1.348 -2.846 1.885 -4.323 c 0.315 -0.869 0.629 -1.736 0.946 -2.604 l 2.008 -5.521 l 2.251 -6.192 c 1.035 -0.913 1.9 -2.034 2.46 -3.304 c 0.804 -1.815 1.132 -3.835 0.697 -5.794 z m -11.04 1.69 c 0.755 -0.102 1.673 -0.272 2.159 -0.921 a 1.638 1.638 0 0 0 0.001 0 c -0.487 0.65 -1.405 0.82 -2.16 0.921 c -0.856 0.115 -1.718 0.161 -2.58 0.217 a 49.638 49.638 0 0 0 0.001 -0.001 c 0.861 -0.056 1.722 -0.101 2.579 -0.216 z m -0.895 -1.884 c 0.229 -0.304 0.432 -0.626 0.652 -0.938 c -0.22 0.312 -0.423 0.634 -0.652 0.938 z m 2.981 -0.879 c 0.044 0.073 0.073 0.151 0.109 0.227 c -0.036 -0.076 -0.065 -0.154 -0.109 -0.227 z m -0.289 -0.397 c 0.011 0.013 0.019 0.028 0.03 0.042 c -0.011 -0.014 -0.019 -0.029 -0.03 -0.042 z m -1.147 -0.949 l -0.007 0.009 c 0.003 -0.004 0.003 -0.006 0.007 -0.009 c 0 -0.001 0 -0.001 0 0 z m -25.832 -6.523 c 0.121 -0.578 0.26 -1.156 0.413 -1.727 c 0.38 -1.429 0.815 -2.834 1.328 -4.221 a 39.8 39.8 0 0 1 1.36 -3.194 c 0.312 -0.661 0.655 -1.311 1.018 -1.946 c 0.42 -0.739 0.946 -1.621 1.825 -1.846 c 0.005 0 0.011 -0.003 0.02 -0.006 l 0.002 0.001 l 0.015 -0.003 c 0.431 -0.097 0.899 -0.025 1.322 0.074 c 0.729 0.172 1.425 0.464 2.122 0.734 c 2.352 0.911 4.637 2.034 6.887 3.173 a 45.046 45.046 0 0 1 4.747 2.759 c 1.396 0.96 2.805 2.095 3.682 3.565 c 0.495 0.85 0.727 1.791 0.644 2.777 c -0.075 0.884 -0.38 1.714 -0.753 2.511 l -0.002 0.004 v 0.001 l 0.002 -0.005 l -0.002 0.003 l -0.002 0.005 c -0.43 0.783 -0.835 1.572 -1.305 2.332 c -0.679 1.096 -1.428 2.135 -2.18 3.18 c -1.436 1.99 -3.044 3.846 -4.763 5.596 c -1.063 -1.745 -2.379 -3.284 -3.826 -4.72 a 33.212 33.212 0 0 0 -5.445 -4.357 c -2.237 -1.436 -4.765 -2.691 -7.443 -2.967 c 0.131 -0.569 0.214 -1.152 0.334 -1.723 z m -3.334 4.353 l 0.025 -0.011 c 0.011 -0.003 0.021 -0.008 0.031 -0.012 l 0.011 -0.003 l -0.045 0.019 l 0.046 -0.019 c 1.727 -0.698 3.695 -0.283 5.375 0.353 c 2.345 0.893 4.504 2.314 6.457 3.872 c 2.002 1.595 3.88 3.472 5.328 5.587 c 0.708 1.037 1.334 2.147 1.772 3.324 c 0.197 0.532 0.388 1.122 0.211 1.685 c -0.164 0.528 -0.649 0.693 -1.153 0.558 c -1.263 -0.341 -1.955 -1.71 -2.633 -2.708 a 41.4 41.4 0 0 0 -2.626 -3.481 c -1.873 -2.218 -3.974 -4.223 -6.44 -5.77 c -2.204 -1.381 -4.611 -2.344 -7.119 -3.016 a 8.76 8.76 0 0 1 0.76 -0.378 z m -3.44 2.35 c 0.467 -0.282 1.042 -0.121 1.54 -0.006 c 0.967 0.225 1.909 0.563 2.831 0.927 c 2.673 1.06 5.144 2.466 7.282 4.402 c 2.152 1.95 3.987 4.266 5.588 6.679 a 53.525 53.525 0 0 1 -3.004 2.137 c -0.685 -1.308 -1.555 -2.511 -2.499 -3.64 a 34.603 34.603 0 0 0 -5.985 -5.651 c -2.219 -1.64 -4.618 -3.013 -7.264 -3.832 c 0.499 -0.345 0.991 -0.706 1.511 -1.016 z m -6.112 -0.787 l 0.003 -0.002 l -0.009 0.007 c -0.008 0.007 -0.014 0.009 -0.019 0.014 l 0.025 -0.019 z m 0.004 -0.003 l -0.003 0.003 l 0.009 -0.007 l -0.006 0.004 z m 0.147 3.606 c 0.604 -0.177 1.248 -0.147 1.863 -0.052 c 1.462 0.224 2.879 0.722 4.217 1.336 c 2.577 1.186 4.929 2.938 7.001 4.86 c 1.816 1.683 3.57 3.6 4.814 5.757 c 0.308 0.532 0.582 1.088 0.802 1.663 c 0.205 0.541 0.453 1.146 0.205 1.715 c -0.465 1.063 -2.001 1.502 -3.03 1.113 c -1.186 -0.45 -1.72 -1.836 -2.272 -2.868 a 38.756 38.756 0 0 0 -2.251 -3.715 a 23.225 23.225 0 0 0 -5.446 -5.577 a 23.307 23.307 0 0 0 -3.359 -2.057 a 19.961 19.961 0 0 0 -1.89 -0.829 c -0.667 -0.249 -1.348 -0.387 -2.036 -0.555 c 0.413 -0.339 0.864 -0.641 1.382 -0.791 z m 35.293 32.516 c -0.326 1.285 -0.866 2.509 -1.475 3.681 c -0.366 0.707 -0.75 1.404 -1.212 2.053 c -0.664 0.934 -1.514 1.731 -2.383 2.47 c -3.728 3.17 -8.333 5.225 -12.853 6.984 c -4.06 1.582 -8.25 2.897 -12.511 3.817 a 40.027 40.027 0 0 1 -5.555 0.799 c -1.763 0.127 -3.557 0.064 -5.315 -0.071 c -3.394 -0.263 -6.813 -0.842 -10.067 -1.844 a 32.207 32.207 0 0 1 -6.481 -2.792 c -2.433 -1.388 -4.678 -3.065 -6.838 -4.842 c -1.892 -1.554 -3.543 -3.498 -4.909 -5.523 c -1.317 -1.953 -2.341 -4.076 -2.71 -6.417 c -0.014 -0.132 -0.034 -0.267 -0.037 -0.4 a 6.699 6.699 0 0 1 0.75 -3.244 c 0.237 -0.455 0.532 -0.875 0.782 -1.324 c 0.109 -0.193 0.222 -0.387 0.349 -0.569 c 0.584 -0.829 1.258 -1.69 2.103 -2.268 c 0.318 0.75 0.667 1.477 1.042 2.202 c 0.67 1.291 1.558 2.472 2.438 3.625 c 0.88 1.154 1.882 2.227 2.889 3.266 c 3.116 3.22 6.799 5.987 10.787 8.031 c 3.4 1.742 6.964 3.092 10.722 3.841 c 3.659 0.728 7.458 0.517 11.111 -0.132 c 2.774 -0.492 5.523 -1.277 8.16 -2.267 a 78.014 78.014 0 0 0 4.124 -1.662 c 1.339 -0.59 2.653 -1.232 3.97 -1.864 c 2.598 -1.289 5.129 -2.74 7.592 -4.271 c 2.006 -1.245 3.976 -2.512 5.682 -4.165 c 0.29 0.909 0.067 1.988 -0.155 2.886 z m 5.218 -21.163 c -0.302 0.285 -0.559 0.626 -0.84 0.933 c -0.388 0.42 -0.784 0.837 -1.187 1.246 c -1.911 1.948 -3.969 3.773 -6.196 5.354 c -2.138 1.516 -4.436 2.761 -6.994 3.383 c -0.622 0.151 -0.421 1.111 0.207 1.003 c 2.464 -0.425 4.734 -1.395 6.892 -2.64 c 2.286 -1.319 4.416 -2.906 6.428 -4.608 c -0.316 0.878 -0.634 1.759 -0.953 2.636 a 53.295 53.295 0 0 1 -4.643 4.18 c -2.257 1.808 -4.664 3.44 -7.226 4.781 a 33.597 33.597 0 0 1 -6.756 2.636 c -0.63 0.173 -0.388 1.149 0.249 1.009 a 45.195 45.195 0 0 0 2.011 -0.482 c 5.425 -1.463 10.418 -4.475 14.801 -7.931 a 144.67 144.67 0 0 1 -0.694 1.545 c -0.286 0.63 -0.582 1.255 -0.878 1.881 c -0.139 0.293 -0.246 0.592 -0.472 0.826 c -0.076 0.079 -0.151 0.157 -0.225 0.237 c -0.875 0.988 -1.987 1.791 -3.068 2.537 c -0.677 0.469 -1.383 0.896 -2.085 1.326 a 109.627 109.627 0 0 1 -7.628 4.28 c -2.094 1.06 -4.253 1.994 -6.43 2.868 a 48.621 48.621 0 0 1 -8.266 2.507 c -1.724 0.354 -3.485 0.628 -5.245 0.699 c -1.338 0.051 -2.657 0.048 -3.992 -0.083 a 25.598 25.598 0 0 1 -4.423 -0.846 a 37.017 37.017 0 0 1 -5.262 -1.916 a 41.222 41.222 0 0 1 -10.765 -7.071 c -0.78 -0.709 -1.495 -1.451 -2.214 -2.207 c -1.024 -1.075 -2.028 -2.227 -2.862 -3.456 c -0.441 -0.649 -0.921 -1.303 -1.283 -2.006 a 28.692 28.692 0 0 1 -0.932 -1.956 c -0.26 -0.605 -0.54 -1.271 -0.386 -1.933 c 0.138 -0.593 0.422 -1.31 0.656 -1.774 c 0.819 -1.643 1.736 -3.201 2.828 -4.678 a 26.905 26.905 0 0 1 4.895 -5.093 c 2.099 -1.637 4.459 -2.879 7.073 -3.436 c 1.808 -0.384 3.741 -0.385 5.545 0.043 c 1.64 0.387 3.176 1.024 4.649 1.855 a 25.12 25.12 0 0 1 2.163 1.36 c 0.948 0.673 1.933 1.335 2.799 2.115 c 1.339 1.209 2.708 2.447 3.774 3.909 c 0.84 1.154 1.614 2.331 2.252 3.608 c 0.612 1.223 1.076 2.489 1.471 3.798 c 0.711 2.353 0.859 4.902 0.675 7.339 a 24.602 24.602 0 0 1 -0.669 4.185 c -0.268 1.056 -0.613 2.083 -0.966 3.114 c -0.309 0.907 1.094 1.389 1.405 0.483 c 0.638 -1.857 1.2 -3.724 1.48 -5.675 c 0.318 -2.205 0.448 -4.491 0.137 -6.707 c -0.068 -0.461 -0.114 -0.931 -0.199 -1.39 c -0.092 -0.497 -0.218 -0.99 -0.326 -1.484 c -0.367 -1.309 -0.803 -2.586 -1.372 -3.822 c -0.574 -1.251 -1.246 -2.51 -2.065 -3.619 a 49.65 49.65 0 0 0 -1.683 -2.175 c -0.758 -0.92 -1.658 -1.733 -2.527 -2.547 a 23.15 23.15 0 0 0 -2.059 -1.704 c -1.914 -1.404 -3.868 -2.736 -6.078 -3.644 l 2.111 -0.845 c 0.56 -0.225 1.154 -0.436 1.688 -0.69 l 0.015 -0.006 c 0.737 0.367 1.547 0.471 2.336 0.679 c 0.732 0.193 1.443 0.523 2.125 0.852 a 21.417 21.417 0 0 1 6.29 4.664 c 1.849 1.985 3.168 4.354 4.442 6.729 c 0.532 0.992 1.182 1.955 2.141 2.58 c 1.013 0.662 2.256 0.862 3.436 0.63 c 1.12 -0.222 2.191 -0.822 2.893 -1.734 c 0.797 -1.033 0.942 -2.298 0.565 -3.523 a 56.869 56.869 0 0 0 3.501 -2.463 c 1.34 1.363 3.588 2.177 5.219 0.806 c 0.724 -0.607 1.105 -1.522 1.155 -2.452 c 0.06 -1.082 -0.332 -2.11 -0.767 -3.081 c 0.405 -0.302 0.803 -0.627 1.185 -0.962 c 0.261 1.163 1.163 2.118 2.12 2.769 c 0.561 0.383 1.191 0.702 1.851 0.872 c 1.98 0.512 4.08 0.503 6.045 -0.085 l -0.892 2.467 z m 4.594 -9.657 l -0.001 -0.003 l 0.002 0.001 v -0.005 c 0.001 -0.002 0.002 -0.004 0.001 -0.007 c 0.002 -0.004 0.003 -0.006 0.002 -0.009 l -0.002 0.022 c -0.001 -0.001 -0.001 0.003 -0.002 0.001 z m -0.516 1.884 a 5.94 5.94 0 0 1 -0.315 0.589 c -0.231 0.375 -0.491 0.74 -0.809 1.045 c -0.548 0.53 -1.224 0.868 -1.914 1.169 c -0.463 0.205 -0.995 0.324 -1.485 0.429 c -0.672 0.144 -1.369 0.249 -2.057 0.277 a 13.474 13.474 0 0 1 -2.086 -0.086 c -0.001 0.002 -0.053 -0.016 0.031 0.016 c -0.762 -0.171 -1.475 -0.418 -2.094 -0.919 c -0.395 -0.316 -0.781 -0.747 -0.896 -1.252 c -0.08 -0.356 -0.015 -0.634 0.093 -0.969 l 0.001 -0.002 c 0.35 -0.566 0.895 -0.792 1.533 -0.926 c 0.827 -0.175 1.699 -0.146 2.541 -0.209 c 1.556 -0.12 3.383 -0.329 4.302 -1.768 a 3.28 3.28 0 0 0 0.199 -2.803 c -0.415 -1.073 -1.337 -1.848 -2.328 -2.379 c 0.207 -0.376 0.417 -0.755 0.615 -1.137 a 13.714 13.714 0 0 1 3.686 2.95 c 0.8 0.906 1.442 2.097 1.51 3.317 c 0.052 0.931 -0.157 1.807 -0.527 2.658 z" stroke-linecap="round"/>
</g>
		<g transform="matrix(1 0 0 1 -3.7977 -14.7672)">
<path style="stroke: rgb(255,221,85); stroke-width: 0; stroke-dasharray: none; stroke-linecap: round; stroke-dashoffset: 0; stroke-linejoin: round; stroke-miterlimit: 4; is-custom-font: none; font-file-url: none; fill: rgb(0,0,0); fill-rule: nonzero; opacity: 1;" transform=" translate(-46.202, -35.234)" d="M 46.2 35.234 h 0.004" stroke-linecap="round"/>
</g>
</g>
</g>
<g transform="matrix(1 0 0 1 612.4527 115)" style="" id="119592">
		
<path xml:space="preserve" font-family="Boogaloo" font-size="247" font-style="normal" font-weight="normal" style="stroke: none; stroke-width: 0; stroke-dasharray: none; stroke-linecap: butt; stroke-dashoffset: 0; stroke-linejoin: miter; stroke-miterlimit: 4; is-custom-font: none; font-file-url: none; fill: rgb(0,0,0); fill-rule: nonzero; opacity: 1; white-space: pre;" d="M-336.54-86.66L-336.54-86.66Q-307.64-95.55-284.30-95.55Q-260.96-95.55-244.65-83.08Q-228.35-70.61-228.35-52.33L-228.35-52.33Q-228.35-24.91-258.98-8.86L-258.98-8.86Q-230.33 2.75-230.33 29.92L-230.33 29.92Q-230.33 49.93-251.32 65.61Q-272.32 81.30-295.29 81.30L-295.29 81.30Q-298.25 81.30-337.53 77.84L-337.53 77.84Q-334.07 24.73-334.07-11.57Q-334.07-47.88-336.54-86.66ZM-261.70-48.87Q-261.70-56.28-268.98-61.34Q-276.27-66.41-284.54-66.41Q-292.82-66.41-302.20-63.44L-302.20-63.44Q-301.22-33.80-301.22-18.74L-301.22-18.74Q-289.85-19.73-275.78-28.99Q-261.70-38.25-261.70-48.87L-261.70-48.87ZM-289.85 51.16Q-281.70 51.16-272.56 44.62Q-263.43 38.07-263.43 29.55Q-263.43 21.03-274.05 14.61Q-284.67 8.19-301.46 6.70L-301.46 6.70Q-301.96 35.85-302.45 50.42L-302.45 50.42Q-298.01 51.16-289.85 51.16ZM-161.04 85.99Q-184.63 85.99-200.81 64.87Q-216.99 43.75-216.99 0.65Q-216.99-42.45-199.33-69.62Q-181.67-96.79-157.71-96.79Q-133.75-96.79-117.82-75.55Q-101.89-54.31-101.89-11.57Q-101.89 31.16-119.67 58.57Q-137.46 85.99-161.04 85.99ZM-157.46-67.40Q-168.33-67.40-176.23-48.25Q-184.14-29.11-184.14-0.09Q-184.14 28.93-177.35 42.89Q-170.55 56.84-160.43 56.84Q-150.30 56.84-142.52 37.58Q-134.74 18.31-134.74-10.71Q-134.74-39.73-141.28-53.56Q-147.83-67.40-157.46-67.40L-157.46-67.40ZM-32.36 85.99Q-55.95 85.99-72.12 64.87Q-88.30 43.75-88.30 0.65Q-88.30-42.45-70.64-69.62Q-52.98-96.79-29.02-96.79Q-5.06-96.79 10.87-75.55Q26.80-54.31 26.80-11.57Q26.80 31.16 9.02 58.57Q-8.77 85.99-32.36 85.99ZM-28.78-67.40Q-39.64-67.40-47.55-48.25Q-55.45-29.11-55.45-0.09Q-55.45 28.93-48.66 42.89Q-41.87 56.84-31.74 56.84Q-21.61 56.84-13.83 37.58Q-6.05 18.31-6.05-10.71Q-6.05-39.73-12.60-53.56Q-19.14-67.40-28.78-67.40L-28.78-67.40ZM98.92 80.80L67.80 78.09Q65.33 34.37 65.33 1.89Q65.33-30.59 66.81-65.91L66.81-65.91L36.68-61.72L31.25-90.37Q55.45-94.57 79.16-96.54L79.16-96.54L125.35-99.01L130.05-71.60Q116.46-70.85 99.42-69.37L99.42-69.37Q97.94-33.80 97.94-4.16Q97.94 25.48 98.92 80.80L98.92 80.80ZM232.80-20.22L202.17-30.35Q205.38-42.45 205.38-50.60Q205.38-58.75 200.93-64.06Q196.49-69.37 189.45-69.37Q182.41-69.37 177.72-62.46Q173.02-55.54 173.02-46.65L173.02-46.65Q173.02-29.36 192.78-17.01L192.78-17.01Q212.54-4.16 219.71 1.52Q226.87 7.20 229.83 11.89L229.83 11.89Q237.24 23.99 237.24 36.84L237.24 36.84Q237.24 59.07 222.30 72.28Q207.36 85.50 188.58 85.50L188.58 85.50Q166.35 85.50 151.29 66.72L151.29 66.72Q140.42 53.14 131.28 32.89L131.28 32.89L155.24 21.28Q160.92 36.10 169.44 46.35Q177.96 56.60 187.60 56.60L187.60 56.60Q193.77 56.60 198.71 52.65Q203.65 48.69 203.65 40.67Q203.65 32.64 197.48 25.72Q191.30 18.81 180.93 11.64Q170.55 4.48 164.87-0.09Q159.19-4.66 152.28-11.82L152.28-11.82Q139.18-25.65 139.18-47.27Q139.18-68.88 154.25-83.57Q169.32-98.27 190.07-98.27Q210.81-98.27 225.02-82.22Q239.22-66.16 239.22-49.24Q239.22-32.32 232.80-20.22L232.80-20.22ZM284.67 30.42L284.67 30.42L284.67 11.40Q252.31-57.02 248.85-87.16L248.85-87.16L279.73-84.19Q285.16-56.53 302.45-18.00L302.45-18.00Q322.95-62.70 334.31-98.77L334.31-98.77L362.97-96.05Q344.69-43.93 319.00 9.91L319.00 9.91Q318.51 32.14 318.51 48.94Q318.51 65.74 319.49 82.78L319.49 82.78L286.89 79.32Q284.67 56.35 284.67 30.42Z"/></g>
</svg>